<svg version="1.1" viewBox="0.0 0.0 96.0 96.0" fill="none" stroke="none" stroke-linecap="square" stroke-miterlimit="10" xmlns:xlink="http://www.w3.org/1999/xlink" xmlns="http://www.w3.org/2000/svg"><clipPath id="p.0"><path d="m0 0l96.0 0l0 96.0l-96.0 0l0 -96.0z" clip-rule="nonzero"/></clipPath><g clip-path="url(#p.0)"><path fill="#000000" fill-opacity="0.0" d="m0 0l96.0 0l0 96.0l-96.0 0z" fill-rule="evenodd"/><path fill="#ffffff" d="m2.3790152 13.310257l0 0c0 -3.9350367 3.1899774 -7.125015 7.1250143 -7.125015l78.416115 0c1.8896713 0 3.7019424 0.750669 5.038147 2.0868688c1.3361969 1.3361988 2.0868683 3.1484747 2.0868683 5.038146l0 69.3769c0 3.9350357 -3.1899796 7.1250153 -7.1250153 7.1250153l-78.416115 0c-3.9350367 0 -7.1250143 -3.1899796 -7.1250143 -7.1250153z" fill-rule="evenodd"/><path fill="#70d848" d="m19.182014 59.936718l0 -7.150299l0 0c0 -0.47410965 0.18833923 -0.9287987 0.52358437 -1.2640457c0.33524513 -0.33524323 0.78993607 -0.52358246 1.2640457 -0.52358246l13.773096 0c4.9591064E-5 0 8.773804E-5 3.8146973E-5 8.773804E-5 8.773804E-5l-8.773804E-5 10.7254715l0 0c0 4.9591064E-5 -4.196167E-5 8.773804E-5 -9.1552734E-5 8.773804E-5l-13.773005 -8.773804E-5l0 0c-0.9872818 0 -1.7876301 -0.8003502 -1.7876301 -1.787632z" fill-rule="evenodd"/><path fill="#04bbec" d="m19.182014 76.662224l0 -7.1503067l0 0c0 -0.47410583 0.18833923 -0.92879486 0.52358437 -1.2640457c0.33524513 -0.33524323 0.78993607 -0.52358246 1.2640457 -0.52358246l13.773096 0c4.9591064E-5 0 8.773804E-5 3.8146973E-5 8.773804E-5 9.1552734E-5l-8.773804E-5 10.7254715l0 0c0 4.5776367E-5 -4.196167E-5 8.392334E-5 -9.1552734E-5 8.392334E-5l-13.773005 -8.392334E-5l0 0c-0.9872818 0 -1.7876301 -0.800354 -1.7876301 -1.7876282z" fill-rule="evenodd"/><path fill="#fbd818" d="m19.182014 43.21122l0 -7.150303l0 0c0 -0.47410965 0.18833923 -0.9287987 0.52358437 -1.2640419c0.33524513 -0.33524704 0.78993607 -0.5235863 1.2640457 -0.5235863l13.773096 0c4.9591064E-5 0 8.773804E-5 4.196167E-5 8.773804E-5 8.773804E-5l-8.773804E-5 10.7254715l0 0c0 4.9591064E-5 -4.196167E-5 8.773804E-5 -9.1552734E-5 8.773804E-5l-13.773005 -8.773804E-5l0 0c-0.9872818 0 -1.7876301 -0.8003502 -1.7876301 -1.7876282z" fill-rule="evenodd"/><path fill="#d63246" d="m19.182014 26.485548l0 -7.150301l0 0c0 -0.47410965 0.18833923 -0.9287987 0.52358437 -1.2640457c0.33524513 -0.33524513 0.78993607 -0.52358437 1.2640457 -0.52358437l13.773096 0c4.9591064E-5 0 8.773804E-5 4.005432E-5 8.773804E-5 8.9645386E-5l-8.773804E-5 10.72547l0 0c0 4.9591064E-5 -4.196167E-5 8.9645386E-5 -9.1552734E-5 8.9645386E-5l-13.773005 -8.9645386E-5l0 0c-0.9872818 0 -1.7876301 -0.8003483 -1.7876301 -1.7876282z" fill-rule="evenodd"/><path fill="#70d848" d="m91.554665 59.93644l0 -7.150299l0 0c0 -0.47410965 -0.18833923 -0.9287987 -0.52358246 -1.2640457c-0.33524323 -0.33524323 -0.78993225 -0.52358246 -1.2640457 -0.52358246l-48.96056 0c-4.9591064E-5 0 -8.773804E-5 3.8146973E-5 -8.773804E-5 8.773804E-5l8.773804E-5 10.7254715l0 0c0 4.9591064E-5 4.196167E-5 8.773804E-5 9.1552734E-5 8.773804E-5l48.96047 -8.773804E-5l0 0c0.9872818 0 1.7876282 -0.8003502 1.7876282 -1.787632z" fill-rule="evenodd"/><path fill="#04bbec" d="m91.554665 76.66212l0 -7.150299l0 0c0 -0.47411346 -0.18833923 -0.9288025 -0.52358246 -1.2640457c-0.33524323 -0.33525085 -0.78993225 -0.5235901 -1.2640457 -0.5235901l-48.96056 0c-4.9591064E-5 0 -8.773804E-5 4.5776367E-5 -8.773804E-5 9.1552734E-5l8.773804E-5 10.7254715l0 0c0 4.5776367E-5 4.196167E-5 9.1552734E-5 9.1552734E-5 9.1552734E-5l48.96047 -9.1552734E-5l0 0c0.9872818 0 1.7876282 -0.8003464 1.7876282 -1.7876282z" fill-rule="evenodd"/><path fill="#fbd818" d="m91.554665 43.210938l0 -7.150303l0 0c0 -0.47410965 -0.18833923 -0.9287987 -0.52358246 -1.2640457c-0.33524323 -0.33524323 -0.78993225 -0.52358246 -1.2640457 -0.52358246l-48.96056 0c-4.9591064E-5 0 -8.773804E-5 3.8146973E-5 -8.773804E-5 8.773804E-5l8.773804E-5 10.7254715l0 0c0 4.9591064E-5 4.196167E-5 8.773804E-5 9.1552734E-5 8.773804E-5l48.96047 -8.773804E-5l0 0c0.9872818 0 1.7876282 -0.8003502 1.7876282 -1.7876282z" fill-rule="evenodd"/><path fill="#d63246" d="m91.554665 26.485432l0 -7.150301l0 0c0 -0.47410965 -0.18833923 -0.9287987 -0.52358246 -1.2640457c-0.33524323 -0.33524513 -0.78993225 -0.52358437 -1.2640457 -0.52358437l-48.96056 0c-4.9591064E-5 0 -8.773804E-5 4.005432E-5 -8.773804E-5 8.9645386E-5l8.773804E-5 10.72547l0 0c0 4.9591064E-5 4.196167E-5 8.9645386E-5 9.1552734E-5 8.9645386E-5l48.96047 -8.9645386E-5l0 0c0.9872818 0 1.7876282 -0.8003483 1.7876282 -1.7876282z" fill-rule="evenodd"/><path fill="#c5deec" d="m71.62443 2.6106176l0 7.150301l0 0c0 0.4741087 -0.18833923 0.9287996 -0.52358246 1.2640448c-0.33525085 0.33524513 -0.7899399 0.52358437 -1.2640457 0.52358437l-60.357727 0c-4.9591064E-5 0 -8.9645386E-5 -4.005432E-5 -8.9645386E-5 -8.9645386E-5l8.9645386E-5 -10.72547l0 0c0 -4.9352646E-5 4.005432E-5 -8.934736E-5 8.9645386E-5 -8.934736E-5l60.357635 8.934736E-5l0 0c0.9872818 0 1.7876282 0.8003487 1.7876282 1.7876289z" fill-rule="evenodd"/><path fill="#c5deec" d="m0.953137 2.8509033l0 0c0 -1.1199863 0.9079283 -2.0279145 2.0279148 -2.0279145l8.111415 0l0 0c0.537837 0 1.0536442 0.2136547 1.4339523 0.5939625c0.38030815 0.38030767 0.59396267 0.8961158 0.59396267 1.4339521l0 90.29665c0 1.1199875 -0.90792847 2.027916 -2.027915 2.027916l-8.111415 0c-1.1199864 0 -2.0279148 -0.90792847 -2.0279148 -2.027916z" fill-rule="evenodd"/><path fill="#fbd818" d="m71.62443 86.17455l0 7.1997147l0 0c0 0.47738647 -0.18964386 0.9352188 -0.5272064 1.2727814c-0.33756256 0.33756256 -0.7953949 0.5272064 -1.2727814 0.5272064l-13.760738 0c-4.9591064E-5 0 -8.773804E-5 -3.8146973E-5 -8.773804E-5 -9.1552734E-5l8.773804E-5 -10.799599l0 0c0 -4.5776367E-5 4.196167E-5 -9.1552734E-5 9.1552734E-5 -9.1552734E-5l13.760647 9.1552734E-5l0 0c0.9941101 0 1.7999878 0.8058777 1.7999878 1.7999878z" fill-rule="evenodd"/><path fill="#ffffff" d="m49.9998 84.374565l6.0630875 0l0 10.79969l-6.0630875 0z" fill-rule="evenodd"/><path fill="#c5deec" d="m49.9998 84.450966l0 10.725563c0 2.2888184E-5 -7.6293945E-6 4.5776367E-5 -2.670288E-5 6.1035156E-5c-1.5258789E-5 1.5258789E-5 -3.8146973E-5 3.0517578E-5 -6.1035156E-5 3.0517578E-5l-42.9087 -9.1552734E-5c-4.9114227E-5 0 -8.916855E-5 -3.8146973E-5 -8.916855E-5 -9.1552734E-5l8.916855E-5 -10.7254715l0 0c0 -4.5776367E-5 4.005432E-5 -8.392334E-5 8.916855E-5 -8.392334E-5l42.9087 8.392334E-5l0 0c4.9591064E-5 0 8.773804E-5 4.5776367E-5 8.773804E-5 9.1552734E-5z" fill-rule="evenodd"/></g></svg>